<svg xmlns="http://www.w3.org/2000/svg" xmlns:xlink="http://www.w3.org/1999/xlink" preserveAspectRatio="xMidYMid" width="66" height="38" viewBox="0 0 66 38">
  <defs>
    <style>

      .cls-3 {
        fill: #000000;
      }
    </style>
  </defs>
  <g id="group-9svg">
    <path d="M35.915,38.153 C35.420,38.153 34.936,37.908 34.649,37.460 C34.204,36.761 34.409,35.834 35.107,35.389 C35.107,35.389 60.698,19.078 60.698,19.078 C60.698,19.078 35.107,2.768 35.107,2.768 C34.409,2.322 34.204,1.395 34.649,0.696 C35.095,-0.002 36.023,-0.206 36.721,0.238 C36.721,0.238 64.296,17.813 64.296,17.813 C64.728,18.089 64.989,18.565 64.989,19.078 C64.989,19.591 64.728,20.067 64.296,20.343 C64.296,20.343 36.721,37.918 36.721,37.918 C36.471,38.077 36.191,38.153 35.915,38.153 Z" id="path-1" class="cls-3" fill-rule="evenodd"/>
    <path d="M61.511,19.250 C61.511,19.250 1.511,19.250 1.511,19.250 C0.683,19.250 0.011,18.578 0.011,17.750 C0.011,16.922 0.683,16.250 1.511,16.250 C1.511,16.250 61.511,16.250 61.511,16.250 C62.339,16.250 63.011,16.922 63.011,17.750 C63.011,18.578 62.339,19.250 61.511,19.250 Z" id="path-2" class="cls-3" fill-rule="evenodd"/>
  </g>
</svg>
