<svg xmlns="http://www.w3.org/2000/svg" viewBox="0 0 2995 3325" shape-rendering="geometricPrecision" text-rendering="geometricPrecision" image-rendering="optimizeQuality" fill-rule="evenodd" clip-rule="evenodd"><path d="M585 3293c-21 32-64 41-96 20l-1-1-458-314c-32-22-40-65-18-96 1-2 2-3 3-4 438-610 874-1220 1310-1832 20-28 59-35 88-15 1 1 2 1 3 2l2 1 121-153c22-28 35-46 38-59s-1-32-13-67c-32-100-115-144-227-151-129-8-296 29-474 90-33 11-69-6-80-39-7-19-3-40 7-55 117-203 245-392 429-507 185-115 420-154 746-56l70-32c19-9 40-7 57 2l399 214c17 9 28 24 31 41l47 168 30-6c18-4 35 0 49 10l320 225c28 20 35 59 15 87l-417 600c-19 28-58 35-86 17l-303-168c-16-9-27-24-31-41l-18-78-185 21-127 215c20 20 24 52 9 77-1 1-1 2-2 3-413 627-826 1254-1238 1881zm702-3074c-122 76-218 193-305 327 133-35 257-54 363-48 165 11 288 80 339 239 19 58 24 95 16 133-9 38-29 66-63 109l-158 199c0 1-1 1-1 2-21 27-61 33-88 11L535 2389l341 234 810-1231c-18-20-21-49-7-74l171-290c9-18 27-32 49-34l272-31c31-4 61 17 69 49l24 106 232 128 349-502-246-173-61 13c-32 7-65-13-73-45l-56-201-348-187-60 28c-14 8-32 10-49 4-297-94-505-64-664 36z"/></svg>