<svg xmlns="http://www.w3.org/2000/svg" viewBox="0 0 333334 250116" shape-rendering="geometricPrecision" text-rendering="geometricPrecision" image-rendering="optimizeQuality" fill-rule="evenodd" clip-rule="evenodd"><path d="M0 0h333334v62202c0 10884-7716 20051-17947 22306 12 161 19 323 19 487v16385c0 40909-16732 78096-43687 105051-26956 26955-64142 43687-105051 43687s-78096-16732-105051-43687c-26955-26956-43687-64142-43687-105051V84995c0-163 6-324 19-483C7718 82263 2 73099 2 62218V1zm166667 156179c8775 0 15889 7114 15889 15889s-7114 15889-15889 15889-15889-7114-15889-15889c0-8776 7114-15889 15889-15889zm-21832-5964c1615-1615 4233-1615 5848 0s1615 4233 0 5848-4233 1615-5848 0-1615-4233 0-5848zm-9026 21850c0-2284 1852-4135 4135-4135s4135 1851 4135 4135c0 2283-1852 4135-4135 4135s-4135-1852-4135-4135zm9067 21832c-1615-1615-1615-4233 0-5848s4233-1615 5848 0 1615 4233 0 5848-4233 1615-5848 0zm21850 9026c-2283 0-4135-1852-4135-4135 0-2284 1852-4135 4135-4135 2284 0 4135 1851 4135 4135 0 2283-1851 4135-4135 4135zm21833-9067c-1615 1615-4233 1615-5848 0s-1615-4233 0-5848 4233-1615 5848 0 1615 4233 0 5848zm9026-21850c0 2283-1851 4135-4135 4135-2283 0-4135-1851-4135-4135s1852-4135 4135-4135c2284 0 4135 1851 4135 4135zm-9067-21833c1615 1615 1615 4233 0 5848s-4233 1615-5848 0-1615-4233 0-5848 4233-1615 5848 0zm-21850-9026c2283 0 4135 1851 4135 4135 0 2283-1852 4135-4135 4135s-4135-1851-4135-4135 1852-4135 4135-4135zm136238-39769V91243H30430v10135c0 37459 15329 71518 40024 96213 24696 24695 58755 40024 96213 40024 37459 0 71518-15329 96213-40024 24695-24696 40024-58755 40024-96213zm-136238 18326c14459 0 27550 5861 37026 15337s15337 22567 15337 37026-5861 27550-15337 37026-22567 15337-37026 15337-27550-5861-37026-15337c-9476-9475-15337-22567-15337-37026s5861-27550 15337-37026 22567-15337 37026-15337zm28188 24175c-7213-7213-17180-11675-28188-11675-11009 0-20975 4462-28188 11675s-11675 17180-11675 28188c0 11009 4462 20975 11675 28188s17180 11675 28188 11675c11009 0 20975-4462 28188-11675s11675-17179 11675-28188-4462-20975-11675-28188z"/></svg>