<svg xmlns="http://www.w3.org/2000/svg" viewBox="0 0 180846 333333" shape-rendering="geometricPrecision" text-rendering="geometricPrecision" image-rendering="optimizeQuality" fill-rule="evenodd" clip-rule="evenodd"><path d="M99896 202273c12467 0 22573 10106 22573 22573s-10106 22572-22573 22572-22572-10106-22572-22572c0-12467 10106-22573 22572-22573zM22059 37598c1461 6183 4571 10909 7155 14835 2936 4460 5344 8118 5344 12642 0 4737-1309 9572-4644 13133-2836 3027-6936 4982-12635 4982-5680 0-9779-1959-12625-4991l-9 9C1309 74648 0 69812 0 65075c0-4524 2408-8182 5343-12642 2592-3939 5715-8683 7170-14896 613-2632 3244-4269 5876-3656 1898 442 3278 1933 3670 3717zm7058 139498h141929v-23381c0-6270-2570-11977-6709-16116s-9844-6709-16115-6709H63825c-145 13-292 20-441 20-148 0-295-7-441-20H51942c-6272 0-11978 2569-16116 6708-4139 4139-6709 9844-6709 16117v23381zm141929 9800H29117v80630h141929v-80630zm0 90430H29117v23382c0 6271 2570 11977 6709 16115 4139 4140 9845 6709 16116 6709h96280c6270 0 11976-2570 16115-6710 4140-4139 6710-9845 6710-16115v-23382zM51942 121090h6542V90817c0-1801 733-3435 1915-4617 1181-1181 2817-1915 4617-1915h5795V64351c0-1582 652-3028 1702-4085l9-9 10-9 20-20 69-66 3-2c1048-998 2457-1613 3994-1613h3694V33675H18347c-3758 0-4737-1957-5759-4015l-8 4-90-181c-39-79-76-159-111-239L1925 8576c-422-831-612-1676-612-2510 0-1405 522-2648 1371-3666 581-698 1318-1269 2093-1661C5689 278 6747 2 7763 2h126380c1757 0 3352 716 4505 1868 1152 1153 1868 2749 1868 4506v20926c0 1740-719 3332-1879 4495l10 9c-1152 1152-2747 1869-4505 1869h-15298v24872h5085c1582 0 3028 652 4085 1702l9 9 9 9 20 20 66 68 3 3c998 1048 1613 2457 1613 3994v19934h4164c1801 0 3435 733 4617 1915 1181 1181 1915 2815 1915 4617v30273h7791c8976 0 17134 3670 23044 9580 5911 5911 9581 14069 9581 23044v146993c0 8975-3670 17133-9581 23044s-14069 9581-23044 9581H51941c-8976 0-17133-3669-23044-9581-5911-5910-9580-14068-9580-23044V153715c0-8977 3669-17134 9580-23045s14068-9580 23045-9580zm16342 0h62346V94085h-4730c-343 76-700 117-1066 117s-722-41-1066-117H68283v27005zm12327-36805h39324V68345H85909c-228 32-460 50-697 50s-470-17-697-50h-3904v15940zm9501-25740h18933V33673H90112v24872zm-5742-34672c274-47 555-72 842-72h28733c287 0 569 25 842 72h15930V9799H13500l7118 14074h63753zM21061 57792c-1214-1844-2526-3838-3782-6066-1256 2228-2568 4222-3782 6066-2031 3086-3697 5617-3697 7282 0 2512 554 4927 1965 6433l-9 9 9 10c1059 1131 2818 1862 5514 1862 2683 0 4444-739 5514-1881 1411-1506 1965-3921 1965-6433 0-1665-1666-4196-3697-7282z"/></svg>