<svg xmlns="http://www.w3.org/2000/svg" xmlns:xlink="http://www.w3.org/1999/xlink" preserveAspectRatio="xMidYMid" width="47" height="63" viewBox="0 0 47 63">
  <defs>
    <style>

      .cls-3 {
        fill: #000000;
      }
    </style>
  </defs>
  <g id="group-17svg">
    <path d="M33.000,57.062 C33.000,60.100 30.537,62.562 27.500,62.562 C27.500,62.562 5.500,62.562 5.500,62.562 C2.463,62.562 -0.000,60.100 -0.000,57.062 C-0.000,57.062 -0.000,26.062 -0.000,26.062 C-0.000,23.025 2.463,20.562 5.500,20.562 C5.500,20.562 27.500,20.562 27.500,20.562 C30.537,20.562 33.000,23.025 33.000,26.062 C33.000,26.062 33.000,57.062 33.000,57.062 ZM30.000,26.062 C30.000,24.682 28.881,23.562 27.500,23.562 C27.500,23.562 5.500,23.562 5.500,23.562 C4.119,23.562 3.000,24.682 3.000,26.062 C3.000,26.062 3.000,57.062 3.000,57.062 C3.000,58.443 4.119,59.562 5.500,59.562 C5.500,59.562 27.500,59.562 27.500,59.562 C28.881,59.562 30.000,58.443 30.000,57.062 C30.000,57.062 30.000,26.062 30.000,26.062 Z" id="path-1" class="cls-3" fill-rule="evenodd"/>
    <path d="M22.286,22.866 C21.947,22.866 21.420,22.753 21.169,22.562 C21.169,22.562 10.977,22.562 10.977,22.562 C10.726,22.753 10.627,22.866 10.286,22.866 C9.459,22.866 9.000,22.194 9.000,21.366 C9.000,21.366 9.000,21.062 9.000,21.062 C9.000,20.930 8.805,20.801 8.836,20.679 C9.275,17.608 12.383,14.562 15.367,14.562 C15.367,14.562 18.373,14.562 18.373,14.562 C21.558,14.562 23.590,17.701 23.772,20.851 C23.781,20.920 24.000,20.991 24.000,21.062 C24.000,21.062 24.000,21.366 24.000,21.366 C24.000,22.194 23.114,22.866 22.286,22.866 ZM12.264,19.562 C12.264,19.562 20.292,19.562 20.292,19.562 C19.957,18.499 19.321,17.562 18.373,17.562 C18.373,17.562 15.367,17.562 15.367,17.562 C14.326,17.562 13.040,18.471 12.264,19.562 Z" id="path-2" class="cls-3" fill-rule="evenodd"/>
    <path d="M44.073,38.562 C44.073,38.562 39.073,38.562 39.073,38.562 C38.245,38.562 38.000,37.891 38.000,37.062 C38.000,37.062 38.000,35.562 38.000,35.562 C38.000,35.562 31.073,35.562 31.073,35.562 C30.245,35.562 30.000,34.891 30.000,34.062 C30.000,34.062 30.000,29.062 30.000,29.062 C30.000,28.234 30.245,27.562 31.073,27.562 C31.073,27.562 44.073,27.562 44.073,27.562 C44.901,27.562 46.000,28.234 46.000,29.062 C46.000,29.062 46.000,37.062 46.000,37.062 C46.000,37.891 44.901,38.562 44.073,38.562 ZM41.000,35.562 C41.000,35.562 43.000,35.562 43.000,35.562 C43.000,35.562 43.000,30.562 43.000,30.562 C43.000,30.562 33.000,30.562 33.000,30.562 C33.000,30.562 33.000,32.562 33.000,32.562 C33.000,32.562 39.073,32.562 39.073,32.562 C39.901,32.562 41.000,33.234 41.000,34.062 C41.000,34.062 41.000,35.562 41.000,35.562 Z" id="path-3" class="cls-3" fill-rule="evenodd"/>
    <path d="M43.437,61.562 C43.437,61.562 40.437,61.562 40.437,61.562 C38.538,61.562 37.000,60.347 37.000,58.312 C37.000,58.312 37.000,50.062 37.000,50.062 C37.000,49.234 37.245,48.562 38.073,48.562 C38.073,48.562 45.073,48.562 45.073,48.562 C45.901,48.562 47.000,49.234 47.000,50.062 C47.000,50.062 47.000,58.312 47.000,58.312 C47.000,60.287 45.343,61.562 43.437,61.562 ZM40.000,51.562 C40.000,51.562 40.000,58.312 40.000,58.312 C40.000,58.359 39.992,58.562 40.437,58.562 C40.437,58.562 43.437,58.562 43.437,58.562 C43.486,58.562 43.738,58.560 43.766,58.557 C43.777,58.506 44.000,58.427 44.000,58.312 C44.000,58.312 44.000,51.562 44.000,51.562 C44.000,51.562 40.000,51.562 40.000,51.562 Z" id="path-4" class="cls-3" fill-rule="evenodd"/>
    <path d="M43.664,44.318 C43.810,45.568 43.200,46.132 41.942,46.132 C40.685,46.132 40.140,45.564 40.313,44.318 C40.500,42.991 41.942,41.483 41.942,41.483 C41.942,41.483 43.517,43.061 43.664,44.318 Z" id="path-5" class="cls-3" fill-rule="evenodd"/>
    <path d="M16.759,17.327 C16.338,17.327 15.929,17.149 15.640,16.827 C15.544,16.719 13.300,14.164 13.891,11.115 C14.282,9.094 15.761,7.437 18.284,6.190 C21.397,4.652 22.006,3.456 22.123,3.013 C22.211,2.681 22.098,2.490 22.074,2.455 C21.473,1.896 21.511,1.045 22.061,0.436 C22.611,-0.172 23.629,-0.140 24.244,0.403 C24.810,0.900 29.738,5.395 28.893,9.962 C28.450,12.344 26.590,14.159 23.362,15.357 C23.193,15.416 19.972,16.525 17.143,17.277 C17.017,17.310 16.887,17.327 16.759,17.327 ZM24.436,5.097 C23.580,6.450 21.966,7.717 19.612,8.880 C17.981,9.686 17.048,10.625 16.839,11.672 C16.656,12.585 17.028,13.493 17.378,14.100 C19.828,13.402 22.322,12.543 22.351,12.533 C24.485,11.740 25.705,10.688 25.941,9.419 C26.197,8.050 25.399,6.438 24.436,5.097 Z" id="path-6" class="cls-3" fill-rule="evenodd"/>
    <path d="M16.758,17.327 C16.475,17.327 16.189,17.247 15.935,17.081 C15.243,16.626 15.051,15.697 15.504,15.005 C15.621,14.826 18.408,10.611 21.557,8.901 C22.283,8.506 23.194,8.776 23.591,9.504 C23.986,10.232 23.716,11.143 22.988,11.538 C20.930,12.656 18.698,15.607 18.013,16.650 C17.725,17.089 17.245,17.327 16.758,17.327 Z" id="path-7" class="cls-3" fill-rule="evenodd"/>
  </g>
</svg>
