<svg xmlns="http://www.w3.org/2000/svg" viewBox="0 0 3333 3333" shape-rendering="geometricPrecision" text-rendering="geometricPrecision" image-rendering="optimizeQuality" fill-rule="evenodd" clip-rule="evenodd"><path d="M1035 2401c25-25 66-25 90 0 25 25 25 66 0 91l-525 525c-25 25-66 25-90 0-25-25-25-66 0-91l525-525zm176-818l228 228L2826 424l39-214c2-13 9-25 17-33l152-155c25-25 65-25 90-1l189 189c25 25 25 66 0 91l-138 138c-9 9-20 15-32 17l-230 62-1385 1385 217 217c25 25 25 66 0 91l-104 104c-11 11-25 17-39 18-25 3-55 6-81 9l-66 6s-1 21-4 64c-2 22-4 49-8 88-2 15-8 29-18 39l-631 631c-146 162-332 192-488 140-64-21-124-57-173-103s-88-103-112-168c-54-148-26-332 149-503l596-596c11-11 25-17 40-19 42-6 78-10 108-13 49-5 74-8 76-10s3-30 5-88c1-25 2-54 4-83 1-16 8-31 19-42l102-102c25-25 66-25 90 0zm400 581l-445-445-39 39c-1 22-2 40-2 56-3 92-5 136-42 173-34 34-75 39-154 48-24 3-51 6-85 10l-581 581c-133 130-157 264-118 369 16 45 44 85 79 118s78 59 125 74c112 37 246 14 353-104 1-2 3-3 4-5l615-615c2-22 4-43 5-61 5-74 8-111 40-144s70-37 145-45c15-2 32-3 57-6l43-43zM3080 157l-94 95-22 119 132-35 81-81-98-98zM843 2210c25-25 66-25 90 0 25 25 25 66 0 91l-525 525c-25 25-66 25-90 0-25-25-25-66 0-91l525-525z" fill-rule="nonzero"/></svg>