<svg xmlns="http://www.w3.org/2000/svg" viewBox="0 0 290280 333333" shape-rendering="geometricPrecision" text-rendering="geometricPrecision" image-rendering="optimizeQuality" fill-rule="evenodd" clip-rule="evenodd"><path d="M290280 55709h-9822v8366c0 7935-3241 15144-8463 20366-5222 5221-12431 8463-20366 8463H61605c-7935 0-15144-3241-20366-8463s-8463-12431-8463-20366v-9563h-3945c-4180 0-7986 1715-10749 4478s-4478 6569-4478 10749v44056c0 4181 1716 7986 4478 10749 2763 2763 6568 4478 10749 4478h76787c3343 0 4498-18 5635-37 13215-214 27976-453 39494 7893 3947 2860 7104 6490 9385 10970 2184 4290 3531 9319 3956 15156 11 160 17 320 17 478h10v22270h11636c5098 0 9728 2080 13080 5432 3351 3351 5432 7981 5432 13079v110558c0 5098-2081 9727-5432 13079-3352 3351-7982 5432-13080 5432h-36164c-5098 0-9728-2081-13079-5432s-5432-7981-5432-13079V204263c0-5098 2080-9728 5432-13079 3351-3352 7981-5432 13079-5432h10926v-22132c-311-3798-1159-6984-2495-9608-1279-2511-3041-4541-5241-6135-7896-5722-20251-5521-31312-5342-2779 45-5466 89-5848 89H28830c-7936 0-15145-3241-20367-8463C3241 128940 0 121731 0 113795V69739c0-7935 3242-15144 8463-20367 5222-5221 12431-8463 20367-8463h3945V28829c0-7936 3241-15145 8463-20367C46459 3240 53668-1 61604-1h190024c7935 0 15145 3241 20366 8463 5222 5221 8463 12431 8463 20367v13277h9822v13602zm-38652-42106H61604c-4180 0-7986 1716-10749 4478-2763 2763-4478 6568-4478 10749v35245c0 4180 1715 7985 4478 10749 2763 2763 6569 4478 10749 4478h190024c4180 0 7985-1716 10748-4478 2763-2763 4478-6569 4478-10749V28830c0-4181-1715-7986-4478-10749s-6568-4478-10748-4478zm-75879 185753h-36164c-1342 0-2569 555-3462 1447-893 893-1447 2119-1447 3461v110558c0 1343 555 2569 1447 3461 893 893 2120 1448 3462 1448h36164c1343 0 2569-555 3462-1448s1448-2119 1448-3461V204264c0-1342-555-2569-1448-3461-893-893-2119-1447-3462-1447z" fill-rule="nonzero"/></svg>