<svg xmlns="http://www.w3.org/2000/svg" viewBox="0 0 314338 334607" shape-rendering="geometricPrecision" text-rendering="geometricPrecision" image-rendering="optimizeQuality" fill-rule="evenodd" clip-rule="evenodd"><path d="M42965 233354c7274 33754 29107 50626 29107 67500 0 16879-7274 33753-29107 33753-21829 0-29104-16874-29104-33753 0-16874 21830-33746 29104-67500zm225000-125174h-59934l14940 55712h44868l126 2v-55714zm-62181-8380h62181V87408c0-2051 837-3914 2184-5261 109-109 223-211 341-306 1314-1166 3039-1878 4920-1878h31482c2041 0 3897 837 5245 2184l8 8 8-8c1346 1346 2184 3210 2184 5261v99322c0 2051-837 3914-2184 5260-109 109-223 211-341 306-1314 1166-3039 1878-4920 1878h-31482c-2040 0-3897-837-5245-2184l-8-8-8 8c-1346-1346-2184-3210-2184-5260v-14460l-126 2h-44100c-3861 17384-14943 29534-29122 36664-10126 5091-21834 7593-33569 7583-11707-10-23482-2523-33775-7458-15040-7211-26940-19549-31038-36788h-2316v-10c-6912 280-12049 1916-15538 4805-3299 2732-5233 6766-5908 12000v21134c0 2314-1876 4190-4190 4190H4191c-2314 0-4190-1876-4190-4190v-45781h6c0-232 19-467 60-704 3083-17981 9850-32638 20817-43504 10898-10798 25819-17725 45252-20309 298-67 609-103 927-103h48831l8458-28839c535-1822 2203-3002 4010-3002v-10h13993V36333h-34209c-5000 0-9543-2043-12833-5333s-5333-7833-5333-12833 2043-9543 5333-12833S103146 1 108146 1h101494c5000 0 9543 2043 12833 5333s5333 7833 5333 12833-2043 9543-5333 12833-7833 5333-12833 5333h-32309v31617h16705c2018 0 3704 1427 4101 3328l7649 28523zm-36835-31850V36333h-18216v31617h18216zm-71855 95942l16340-55712H67216c-17519 2329-30849 8453-40442 17957s-15578 22519-18394 38611v41262h55712v-17173c0-238 20-472 59-700 935-7454 3844-13338 8893-17520 4936-4088 11795-6373 20727-6709l147-2v-14h3175zm7081 5580c3258 15001 13572 25766 26699 32060 9163 4393 19684 6630 30174 6639 10462 9 20859-2201 29805-6699 12326-6198 21893-16806 24950-32003l-24977-93140h-59339l-8458 28839-18712 63800c-37 172-85 340-142 504zM209638 8380H108144c-2686 0-5132 1103-6908 2878-1776 1776-2878 4222-2878 6908s1103 5132 2878 6908 4222 2878 6908 2878h101494c2686 0 5132-1103 6908-2878 1776-1776 2878-4222 2878-6908s-1103-5132-2878-6908c-1776-1776-4222-2878-6908-2878zm96320 79964h-29612v97451h29612V88344z" fill-rule="nonzero"/></svg>