<svg width="20" height="20" viewBox="0 0 20 20" fill="none" xmlns="http://www.w3.org/2000/svg">
<path d="M9.049 2.92699C9.349 2.00599 10.652 2.00599 10.951 2.92699L12.021 6.21899C12.0864 6.41948 12.2135 6.59417 12.3841 6.71809C12.5547 6.84202 12.7601 6.90883 12.971 6.90899H16.433C17.402 6.90899 17.804 8.14899 17.021 8.71899L14.221 10.753C14.05 10.877 13.9227 11.052 13.8573 11.2528C13.7919 11.4537 13.7918 11.6701 13.857 11.871L14.927 15.163C15.227 16.084 14.172 16.851 13.387 16.281L10.587 14.247C10.4162 14.123 10.2106 14.0562 9.99951 14.0562C9.78845 14.0562 9.5828 14.123 9.412 14.247L6.612 16.281C5.828 16.851 4.774 16.084 5.073 15.163L6.143 11.871C6.20818 11.6701 6.20806 11.4537 6.14267 11.2528C6.07728 11.052 5.94997 10.877 5.779 10.753L2.98 8.71999C2.197 8.14999 2.6 6.90999 3.568 6.90999H7.029C7.24005 6.91004 7.44571 6.84332 7.61653 6.71938C7.78735 6.59544 7.91458 6.42064 7.98 6.21999L9.05 2.92799L9.049 2.92699Z" fill="black"/>
</svg>
