<svg xmlns="http://www.w3.org/2000/svg" viewBox="0 0 333333 333333" shape-rendering="geometricPrecision" text-rendering="geometricPrecision" image-rendering="optimizeQuality" fill-rule="evenodd" clip-rule="evenodd"><path d="M258696 218463c2958-30470-1813-59662-19968-94213-3711 24296-12228 38012-30672 55685-8063-47871-34375-92613-59403-134059 1467 55050-16470 133694-53470 176083-4529-22112-1264-33508-4192-55796-4976 19909-15301 32434-18142 59876-2317 22371 3977 41389 15663 55996 13009 16263 32757 27260 54878 31540 63997 12380 109219-32421 115306-95112zm-41654 100349c-12861 8383-25196 12574-37967 13977-12448 1367-25044 33-38855-2638-25935-5018-49261-18130-64849-37615-48989-61236 6395-124853 10338-195088 17104 20880 18865 33099 21942 60511 325 2895 595 5795 813 8700 7076-17905 12407-36792 16098-55408 8070-40695 8483-71267 502-111251 29688 17897 45122 41438 62004 72178 10424 18981 20387 38837 29320 63384 6363-25283 7872-33467 1279-60489 77488 48952 83773 188608-625 243740z" fill-rule="nonzero"/></svg>